# File created by Blade
# Date/Time:  Thu Jan 15 17:55:17 2015
#---------------------------------------------------------
:version 1.10
:name HOM
:units
  mass 1.0
  length 1.000000
  angle deg
:documentation
     Acclaim Skeleton File
:root
   axis xyz
   order TX TY TZ RX RY RZ
   position 0.000000 0.000000 0.000000
   orientation 0 0 0
:bonedata
   begin
      id 1
      name Spine_dum
      direction 0.000000 1.000000 0.000000
      length 5.015652
      axis 0.0 0.0 0.0 xyz
   end
   begin
      id 2
      name LeftUpLeg_dum
      direction 1.000000 0.000000 0.000000
      length 4.275145
      axis 0.0 0.0 0.0 xyz
   end
   begin
      id 3
      name RightUpLeg_dum
      direction -1.000000 0.000000 0.000000
      length 4.275145
      axis 0.0 0.0 0.0 xyz
   end
   begin
      id 4
      name Spine
      direction 0.000000 1.000000 0.000000
      length 0.000000
      axis 0.0 0.0 0.0 xyz
      dof rx ry rz
   end
   begin
      id 5
      name Spine_dum1
      direction 0.000000 1.000000 0.000000
      length 15.980521
      axis 0.0 0.0 0.0 xyz
   end
   begin
      id 6
      name Spine_dum2
      direction 0.000000 1.000000 0.000000
      length 12.162712
      axis 0.0 0.0 0.0 xyz
   end
   begin
      id 7
      name Spine_dum3
      direction 0.000000 1.000000 0.000000
      length 12.162712
      axis 0.0 0.0 0.0 xyz
   end
   begin
      id 8
      name Head
      direction 0.000000 1.000000 0.000000
      length 4.527550
      axis 0.0 0.0 0.0 xyz
      dof rx ry rz
   end
   begin
      id 9
      name LeftShoulder
      direction 1.000000 0.000000 0.000000
      length 7.205867
      axis 0.0 0.0 -90.0 xyz
      dof rx ry rz
   end
   begin
      id 10
      name LeftArm
      direction 1.000000 0.000000 0.000000
      length 10.786708
      axis 0.0 0.0 -90.0 xyz
      dof rx ry rz
   end
   begin
      id 11
      name LeftForeArm
      direction 1.000000 0.000000 0.000000
      length 7.946034
      axis 0.0 0.0 -90.0 xyz
      dof rz ry rx
   end
   begin
      id 12
      name LeftHand
      direction 0.000000 0.000000 0.000000
      length 0.000000
      axis 0.0 0.0 -90.0 xyz
      dof rx ry rz
   end
   begin
      id 13
      name LeftHand_dum1
      direction 0.000000 0.000000 0.000000
      length 0.000000
      axis 0.0 0.0 -90.0 xyz
   end
   begin
      id 14
      name LeftHand_dum2
      direction 1.000000 0.000000 0.000000
      length 3.937000
      axis 0.0 0.0 -90.0 xyz
   end
   begin
      id 15
      name LeftHandThumb1
      direction 0.000000 0.000000 1.000000
      length 3.937000
      axis 0.0 0.0 -90.0 xyz
      dof rx ry rz
   end
   begin
      id 16
      name RightShoulder
      direction -1.000000 0.000000 0.000000
      length 7.205867
      axis 0.0 0.0 90.0 xyz
      dof rx ry rz
   end
   begin
      id 17
      name RightArm
      direction -1.000000 0.000000 0.000000
      length 10.786708
      axis 0.0 0.0 90.0 xyz
      dof rx ry rz
   end
   begin
      id 18
      name RightForeArm
      direction -1.000000 0.000000 0.000000
      length 7.946034
      axis 0.0 0.0 90.0 xyz
      dof rz ry rx
   end
   begin
      id 19
      name RightHand
      direction 0.000000 0.000000 0.000000
      length 0.000000
      axis 0.0 0.0 90.0 xyz
      dof rx ry rz
   end
   begin
      id 20
      name RightHand_dum1
      direction 0.000000 0.000000 0.000000
      length 0.000000
      axis 0.0 0.0 90.0 xyz
   end
   begin
      id 21
      name RightHand_dum2
      direction -1.000000 0.000000 0.000000
      length 3.937000
      axis 0.0 0.0 90.0 xyz
   end
   begin
      id 22
      name RightHandThumb1
      direction 0.000000 0.000000 1.000000
      length 3.937000
      axis 0.0 0.0 90.0 xyz
      dof rx ry rz
   end
   begin
      id 23
      name LeftUpLeg
      direction 0.000000 -1.000000 0.000000
      length 17.046659
      axis 0.0 0.0 0.0 xyz
      dof rx ry rz
   end
   begin
      id 24
      name LeftLeg
      direction 0.000000 -1.000000 0.000000
      length 17.458438
      axis 0.0 0.0 0.0 xyz
      dof rx ry rz
   end
   begin
      id 25
      name LeftFoot
      direction 0.000000 -0.258819 0.965926
      length 5.099406
      axis 15.0 0.0 0.0 xyz
      dof rx ry rz
   end
   begin
      id 26
      name LeftToeBase
      direction 0.000000 0.000000 1.000000
      length 2.952750
      axis 0.0 0.0 0.0 xyz
      dof rx ry rz
   end
   begin
      id 27
      name RightUpLeg
      direction 0.000000 -1.000000 0.000000
      length 17.046659
      axis 0.0 0.0 0.0 xyz
      dof rx ry rz
   end
   begin
      id 28
      name RightLeg
      direction 0.000000 -1.000000 0.000000
      length 17.458438
      axis 0.0 0.0 0.0 xyz
      dof rx ry rz
   end
   begin
      id 29
      name RightFoot
      direction 0.000000 -0.258819 0.965926
      length 5.099406
      axis 15.0 0.0 0.0 xyz
      dof rx ry rz
   end
   begin
      id 30
      name RightToeBase
      direction 0.000000 0.000000 1.000000
      length 2.952750
      axis 0.0 0.0 0.0 xyz
      dof rx ry rz
   end
:hierarchy
   begin
      root Spine_dum LeftUpLeg_dum RightUpLeg_dum
      Spine_dum Spine
      LeftUpLeg_dum LeftUpLeg
      RightUpLeg_dum RightUpLeg
      Spine Spine_dum1 Spine_dum2 Spine_dum3
      Spine_dum1 Head
      Spine_dum2 LeftShoulder
      Spine_dum3 RightShoulder
      LeftShoulder LeftArm
      LeftArm LeftForeArm
      LeftForeArm LeftHand
      LeftHand LeftHand_dum1 LeftHand_dum2
      LeftHand_dum1 LeftHandThumb1
      RightShoulder RightArm
      RightArm RightForeArm
      RightForeArm RightHand
      RightHand RightHand_dum1 RightHand_dum2
      RightHand_dum1 RightHandThumb1
      LeftUpLeg LeftLeg
      LeftLeg LeftFoot
      LeftFoot LeftToeBase
      RightUpLeg RightLeg
      RightLeg RightFoot
      RightFoot RightToeBase
   end

# File created by Blade
# Date/Time:  Thu Jan 15 17:55:09 2015
# Frame Rate: 120.000 fps
#------------------------------------------------------
:FULLY-SPECIFIED
:DEGREES
418
root 5.197447 11.278623 -14.113747 -3.466719 -0.456016 -0.481329
Spine 24.188319 -11.653351 -9.264643
Head -21.628881 16.747481 17.229446
LeftShoulder -18.701067 -14.345028 30.784416
LeftArm 81.083628 -21.957946 -34.509314
LeftForeArm -0.000000 21.917227 1.115145
LeftHand 2.312601 -0.000000 -1.519037
LeftHandThumb1 -26.253704 33.147579 0.000000
RightShoulder 11.766807 47.264364 -19.942423
RightArm 59.771759 11.036501 45.400639
RightForeArm -0.000000 -47.074183 14.424917
RightHand -4.622469 -0.000000 2.992378
RightHandThumb1 -24.326973 -32.862282 -0.000000
LeftUpLeg -88.742473 25.049852 4.698485
LeftLeg 155.906416 -0.000000 -0.000000
LeftFoot -41.223592 -5.157012 -12.737163
LeftToeBase -17.414141 -0.000000 0.000000
RightUpLeg -93.227737 -21.686489 11.018871
RightLeg 157.970200 -0.000000 -0.000000
RightFoot -36.587670 -9.696534 19.682604
RightToeBase -28.998909 -0.000000 0.000000
419
root 5.184421 11.442560 -14.132228 -3.304838 -0.572920 -0.479488
Spine 23.990024 -11.663534 -9.350485
Head -21.703908 16.861469 17.369459
LeftShoulder -18.688547 -14.155483 30.856557
LeftArm 80.709491 -22.288555 -34.300885
LeftForeArm -0.000000 22.073589 1.353874
LeftHand 2.227091 0.000000 -1.991278
LeftHandThumb1 -26.253704 33.147579 0.000000
RightShoulder 11.732498 47.176198 -20.060235
RightArm 59.642901 11.000332 45.227810
RightForeArm -0.000000 -47.138475 14.535917
RightHand -4.518438 -0.000000 3.177642
RightHandThumb1 -24.326973 -32.862282 -0.000000
LeftUpLeg -88.403792 25.233149 4.725501
LeftLeg 155.383745 -0.000000 -0.000000
LeftFoot -41.032388 -5.325965 -12.710177
LeftToeBase -17.508664 -0.000000 0.000000
RightUpLeg -92.902617 -21.666925 10.982934
RightLeg 157.419475 -0.000000 -0.000000
RightFoot -36.345003 -9.642468 19.493096
RightToeBase -29.145088 -0.000000 0.000000
420
root 5.172517 11.632377 -14.152582 -3.121326 -0.694434 -0.479092
Spine 23.768964 -11.675523 -9.415922
Head -21.820079 16.924360 17.485862
LeftShoulder -18.668828 -13.991962 30.904599
LeftArm 80.178602 -22.550543 -33.722997
LeftForeArm -0.000000 21.843165 1.585188
LeftHand 2.127240 -0.000000 -2.282606
LeftHandThumb1 -26.253704 33.147579 0.000000
RightShoulder 11.722961 47.085300 -20.158864
RightArm 59.535360 10.959539 45.027772
RightForeArm -0.000000 -47.086233 14.532478
RightHand -4.317566 -0.000000 3.168581
RightHandThumb1 -24.326973 -32.862282 -0.000000
LeftUpLeg -88.002286 25.414533 4.724685
LeftLeg 154.771223 -0.000000 -0.000000
LeftFoot -40.862959 -5.412773 -12.669233
LeftToeBase -17.561392 -0.000000 0.000000
RightUpLeg -92.531759 -21.654353 10.959677
RightLeg 156.785136 -0.000000 -0.000000
RightFoot -36.210404 -9.494520 19.477041
RightToeBase -28.917801 -0.000000 0.000000
421
root 5.167782 11.843375 -14.175199 -2.897540 -0.799019 -0.424583
Spine 23.512575 -11.728993 -9.520040
Head -21.973991 16.974892 17.551057
LeftShoulder -18.661276 -13.866276 30.982354
LeftArm 79.686096 -22.835452 -33.377767
LeftForeArm 0.000000 21.969673 1.769899
LeftHand 2.256274 -0.000000 -2.607700
LeftHandThumb1 -26.253704 33.147579 0.000000
RightShoulder 11.714839 46.995607 -20.280006
RightArm 59.475082 10.992853 45.035112
RightForeArm 0.000000 -47.233602 14.531584
RightHand -4.314098 -0.000000 3.389355
RightHandThumb1 -24.326973 -32.862282 -0.000000
LeftUpLeg -87.629907 25.557948 4.557118
LeftLeg 154.088802 -0.000000 -0.000000
LeftFoot -40.671348 -5.474643 -12.659833
LeftToeBase -17.282135 -0.000000 0.000000
RightUpLeg -92.133267 -21.695867 10.893905
RightLeg 156.072233 -0.000000 -0.000000
RightFoot -36.190831 -9.344791 19.522877
RightToeBase -28.686081 -0.000000 0.000000
422
root 5.162688 12.075950 -14.198542 -2.669183 -0.922474 -0.372440
Spine 23.260745 -11.731838 -9.607865
Head -22.150464 16.991566 17.627196
LeftShoulder -18.673852 -13.777704 31.081650
LeftArm 79.157897 -23.052428 -32.907874
LeftForeArm -0.000000 21.866318 1.916608
LeftHand 2.267054 -0.000000 -2.814513
LeftHandThumb1 -26.253704 33.147579 0.000000
RightShoulder 11.701436 47.003076 -20.380054
RightArm 59.266213 10.913560 44.873716
RightForeArm 0.000000 -47.199009 14.554731
RightHand -4.262917 0.000000 3.449392
RightHandThumb1 -24.326973 -32.862282 -0.000000
LeftUpLeg -87.227071 25.722625 4.386921
LeftLeg 153.320426 -0.000000 -0.000000
LeftFoot -40.444568 -5.549177 -12.760227
LeftToeBase -17.434688 -0.000000 0.000000
RightUpLeg -91.623136 -21.728701 10.768099
RightLeg 155.301923 -0.000000 -0.000000
RightFoot -36.136325 -9.162207 19.381521
RightToeBase -28.363927 -0.000000 0.000000
423
root 5.155609 12.327727 -14.223639 -2.411388 -1.068414 -0.365645
Spine 22.973109 -11.769785 -9.653301
Head -22.316165 17.036884 17.682914
LeftShoulder -18.712607 -13.668653 31.149558
LeftArm 78.694068 -23.305172 -32.470450
LeftForeArm -0.000000 21.836410 1.950266
LeftHand 2.364531 -0.000000 -2.820390
LeftHandThumb1 -26.253704 33.147579 0.000000
RightShoulder 11.776551 46.871538 -20.391269
RightArm 59.260438 10.981110 44.761922
RightForeArm -0.000000 -47.167023 14.413708
RightHand -4.186786 -0.000000 3.425782
RightHandThumb1 -24.326973 -32.862282 -0.000000
LeftUpLeg -86.792328 25.896799 4.302151
LeftLeg 152.507718 -0.000000 -0.000000
LeftFoot -40.135366 -5.631806 -12.765483
LeftToeBase -17.583298 -0.000000 0.000000
RightUpLeg -91.067535 -21.724131 10.703589
RightLeg 154.444662 -0.000000 -0.000000
RightFoot -36.059060 -9.045011 19.165690
RightToeBase -27.884112 -0.000000 0.000000
